<svg width="64" height="64" viewBox="0 0 64 64" fill="none" xmlns="http://www.w3.org/2000/svg">
<rect width="64" height="64" rx="16" fill="#F9F9F9"/>
<path fill-rule="evenodd" clip-rule="evenodd" d="M41.3894 25.4101C41.6519 25.6727 41.7993 26.0287 41.7993 26.3999C41.7993 26.7712 41.6519 27.1272 41.3894 27.3897L30.1894 38.5897C29.9269 38.8522 29.5708 38.9996 29.1996 38.9996C28.8284 38.9996 28.4723 38.8522 28.2098 38.5897L22.6098 32.9897C22.3548 32.7257 22.2137 32.3721 22.2168 32.005C22.22 31.6379 22.3673 31.2868 22.6268 31.0272C22.8864 30.7676 23.2376 30.6204 23.6046 30.6172C23.9717 30.614 24.3254 30.7551 24.5894 31.0101L29.1996 35.6203L39.4098 25.4101C39.6723 25.1477 40.0284 25.0002 40.3996 25.0002C40.7708 25.0002 41.1269 25.1477 41.3894 25.4101Z" fill="#100F01"/>
</svg>
