<svg width="28" height="29" viewBox="0 0 28 29" fill="none" xmlns="http://www.w3.org/2000/svg">
<path d="M13.9997 2.58105C11.6922 2.58105 9.4366 3.26529 7.51803 4.54724C5.59945 5.82919 4.10411 7.65128 3.22109 9.78308C2.33806 11.9149 2.10702 14.2607 2.55718 16.5238C3.00735 18.7869 4.11849 20.8657 5.7501 22.4973C7.38171 24.1289 9.46051 25.2401 11.7236 25.6902C13.9867 26.1404 16.3325 25.9093 18.4643 25.0263C20.5961 24.1433 22.4182 22.6479 23.7002 20.7294C24.9821 18.8108 25.6663 16.5552 25.6663 14.2477C25.6663 12.7156 25.3646 11.1985 24.7783 9.78308C24.192 8.36762 23.3326 7.08149 22.2493 5.99814C21.1659 4.91479 19.8798 4.05543 18.4643 3.46913C17.0489 2.88282 15.5318 2.58105 13.9997 2.58105ZM18.6663 15.4144H13.9997C13.6903 15.4144 13.3935 15.2915 13.1747 15.0727C12.9559 14.8539 12.833 14.5571 12.833 14.2477V9.58105C12.833 9.27164 12.9559 8.97489 13.1747 8.7561C13.3935 8.5373 13.6903 8.41439 13.9997 8.41439C14.3091 8.41439 14.6058 8.5373 14.8246 8.7561C15.0434 8.97489 15.1663 9.27164 15.1663 9.58105V13.0811H18.6663C18.9758 13.0811 19.2725 13.204 19.4913 13.4228C19.7101 13.6416 19.833 13.9383 19.833 14.2477C19.833 14.5571 19.7101 14.8539 19.4913 15.0727C19.2725 15.2915 18.9758 15.4144 18.6663 15.4144Z" fill="#100F01"/>
</svg>
