<svg width="138" height="138" viewBox="0 0 138 138" fill="none" xmlns="http://www.w3.org/2000/svg">
<path fill-rule="evenodd" clip-rule="evenodd" d="M40.0975 36.1654C40.7926 36.1654 41.4808 36.315 42.123 36.6057C42.7651 36.8963 43.3486 37.3224 43.8401 37.8595C44.3316 38.3965 44.7214 39.0342 44.9874 39.7359C45.2534 40.4376 45.3903 41.1897 45.3903 41.9493C45.3903 43.0932 45.0799 44.2115 44.4983 45.1627C43.9167 46.1138 43.0901 46.8551 42.123 47.2929C41.1558 47.7307 40.0916 47.8452 39.0649 47.622C38.0382 47.3989 37.0951 46.848 36.3549 46.0391C35.6147 45.2302 35.1106 44.1996 34.9064 43.0777C34.7022 41.9557 34.807 40.7928 35.2076 39.7359C35.6082 38.679 36.2866 37.7757 37.157 37.1402C38.0274 36.5046 39.0507 36.1654 40.0975 36.1654Z" fill="white"/>
<path fill-rule="evenodd" clip-rule="evenodd" d="M1 55.1095V82.8907C1 90.7752 7.45087 97.2261 15.3353 97.2261H40.7741V122.665C40.7741 130.549 47.2249 137 55.1094 137H82.8906C90.775 137 97.226 130.549 97.226 122.665V97.2261H122.665C130.549 97.2261 137 90.7752 137 82.8907V55.1095C137 47.2251 130.549 40.7742 122.665 40.7742H97.226V15.3353C97.226 7.45087 90.775 1 82.8906 1H55.1094C47.2259 1 40.777 7.45183 40.7741 15.3353L40.7638 40.7364L15.3251 40.8795C7.44069 40.8795 1 47.2254 1 55.1095Z" fill="white" stroke="white" stroke-width="0.319082"/>
<path fill-rule="evenodd" clip-rule="evenodd" d="M1 55.1095V82.8907C1 90.7752 7.45087 97.2261 15.3353 97.2261H40.7741V122.665C40.7741 130.549 47.2249 137 55.1094 137H68.9999V1H55.1094C47.2249 1 40.7741 7.45088 40.7741 15.3353V40.7742H34.9104C35.6011 46.4248 35.9327 49.1138 37.9406 53.9804C42.9715 66.1727 54.3045 79.8576 53.6907 92.5955C46.2663 93.265 46.4063 101.761 51.4833 103.588C57.1952 105.643 62.2312 99.0057 56.8609 93.6123C56.2495 73.6746 53.9034 71.7006 44.953 53.7148C42.3432 48.4707 41.2388 44.5231 40.7741 40.7742H15.3353C7.45087 40.7742 1 47.2251 1 55.1095Z" fill="#FAD903"/>
<path fill-rule="evenodd" clip-rule="evenodd" d="M98.8571 36.1654C101.412 36.1654 103.544 38.1432 104.04 40.7741H93.6738C94.1707 38.1432 96.3024 36.1654 98.8571 36.1654Z" fill="white"/>
<path fill-rule="evenodd" clip-rule="evenodd" d="M68.998 1V137H82.8887C90.7731 137 97.2241 130.549 97.2241 122.665V97.2261H122.663C130.547 97.2261 136.998 90.7752 136.998 82.8907V55.1095C136.998 47.2251 130.547 40.7742 122.663 40.7742H104.029C102.874 45.5857 100.908 49.6714 100.297 52.4747C103.575 57.5154 104.244 58.6217 104.137 66.4626C104.07 71.3738 102.869 76.8622 101.446 81.1366C99.9034 85.7733 94.3975 95.6813 89.5748 95.797C85.0519 95.9053 85.0259 90.3763 89.555 89.9333C92.2402 89.67 92.6902 91.1927 94.6279 86.4886C97.5353 79.5381 98.0475 70.1046 97.1807 62.7842C96.4895 56.9475 94.4656 55.3532 89.2313 58.7854C83.7463 62.384 76.2996 73.2948 74.4406 79.93C72.6425 86.3469 77.0321 85.858 75.959 89.4315C75.4714 91.0761 73.0751 91.8927 71.4436 90.5421C70.2055 89.4736 69.8637 86.762 70.0463 83.5717C70.5421 74.9062 75.4708 62.3257 81.653 56.0758C86.171 51.5087 92.7706 50.5539 93.5171 49.8534C94.3592 49.0626 94.9556 46.888 97.0564 40.0793C97.1146 39.8904 97.1706 39.7065 97.2241 39.5272V15.3353C97.2241 7.45088 90.7731 1 82.8887 1H68.998Z" fill="#FAD903"/>
</svg>
