<svg width="28" height="29" viewBox="0 0 28 29" fill="none" xmlns="http://www.w3.org/2000/svg">
<path d="M22.1663 4.91309H5.83301C4.90475 4.91309 4.01451 5.28183 3.35813 5.93821C2.70176 6.59459 2.33301 7.48483 2.33301 8.41309V20.0798C2.33301 21.008 2.70176 21.8982 3.35813 22.5546C4.01451 23.211 4.90475 23.5798 5.83301 23.5798H22.1663C23.0946 23.5798 23.9848 23.211 24.6412 22.5546C25.2976 21.8982 25.6663 21.008 25.6663 20.0798V8.41309C25.6663 7.48483 25.2976 6.59459 24.6412 5.93821C23.9848 5.28183 23.0946 4.91309 22.1663 4.91309ZM22.1663 7.24642L14.583 12.4614C14.4057 12.5638 14.2045 12.6177 13.9997 12.6177C13.7949 12.6177 13.5937 12.5638 13.4163 12.4614L5.83301 7.24642H22.1663Z" fill="#100F01"/>
</svg>
