<svg width="42" height="42" viewBox="0 0 42 42" fill="none" xmlns="http://www.w3.org/2000/svg">
<rect width="42" height="42" rx="21" fill="#FAEA03"/>
<path d="M16.7738 13.4415C15.3672 13.4415 13.4922 15.3165 13.4922 16.7231C13.4922 18.5348 15.3672 21.879 17.2422 23.754C17.4439 23.9557 17.978 24.4898 18.1797 24.6915C20.0547 26.5665 23.3989 28.4415 25.2105 28.4415C26.6172 28.4415 28.4922 26.5665 28.4922 25.1598C28.4922 23.754 26.6172 21.879 25.2105 21.879C24.7422 21.879 23.0464 22.849 22.8672 22.8165C21.3722 22.5465 19.4297 20.5557 19.1172 19.0665C19.0739 18.859 20.0547 17.1915 20.0547 16.7231C20.0547 15.3165 18.1797 13.4415 16.7738 13.4415Z" fill="#100F01"/>
</svg>
