<svg width="28" height="29" viewBox="0 0 28 29" fill="none" xmlns="http://www.w3.org/2000/svg">
<path d="M14 13.0811C14.9665 13.0811 15.75 12.2976 15.75 11.3311C15.75 10.3646 14.9665 9.58105 14 9.58105C13.0335 9.58105 12.25 10.3646 12.25 11.3311C12.25 12.2976 13.0335 13.0811 14 13.0811Z" fill="#100F01"/>
<path d="M14.0003 2.58105C11.5411 2.58093 9.18112 3.55144 7.43344 5.28164C5.68576 7.01185 4.69158 9.36191 4.66699 11.8211C4.66699 18.2144 12.892 25.3311 13.242 25.6344C13.4533 25.8151 13.7222 25.9145 14.0003 25.9145C14.2784 25.9145 14.5473 25.8151 14.7587 25.6344C15.167 25.3311 23.3337 18.2144 23.3337 11.8211C23.3091 9.36191 22.3149 7.01185 20.5672 5.28164C18.8195 3.55144 16.4596 2.58093 14.0003 2.58105ZM14.0003 15.4144C13.1927 15.4144 12.4032 15.1749 11.7317 14.7262C11.0602 14.2775 10.5369 13.6398 10.2278 12.8937C9.91876 12.1475 9.8379 11.3265 9.99545 10.5344C10.153 9.74235 10.5419 9.01477 11.113 8.4437C11.684 7.87264 12.4116 7.48374 13.2037 7.32618C13.9958 7.16863 14.8168 7.24949 15.5629 7.55855C16.3091 7.8676 16.9468 8.39098 17.3955 9.06248C17.8442 9.73398 18.0837 10.5234 18.0837 11.3311C18.0837 12.414 17.6535 13.4526 16.8877 14.2184C16.1219 14.9842 15.0833 15.4144 14.0003 15.4144Z" fill="#100F01"/>
</svg>
