<svg width="28" height="29" viewBox="0 0 28 29" fill="none" xmlns="http://www.w3.org/2000/svg">
<path d="M8.08358 3.66504C6.11424 3.66504 3.48926 6.29003 3.48926 8.25936C3.48926 10.7957 6.11426 15.4775 8.73926 18.1025C9.02159 18.3849 9.76942 19.1327 10.0518 19.415C12.6768 22.04 17.3586 24.665 19.8949 24.665C21.8643 24.665 24.4893 22.0401 24.4893 20.0707C24.4893 18.1026 21.8643 15.4775 19.8949 15.4775C19.2393 15.4775 16.8651 16.8355 16.6143 16.79C14.5213 16.412 11.8018 13.6249 11.3643 11.54C11.3036 11.2495 12.6768 8.91503 12.6768 8.25936C12.6768 6.29003 10.0517 3.66504 8.08358 3.66504Z" fill="#100F01"/>
</svg>
